<svg xmlns="http://www.w3.org/2000/svg" width="1200" height="360" viewBox="0 0 1200 360" role="img" aria-labelledby="title description">
  <title id="title">Paseo ACP</title>
  <desc id="description">Antigravity and ZCode connected to the Agent Client Protocol.</desc>
  <defs>
    <pattern id="grid" width="32" height="32" patternUnits="userSpaceOnUse">
      <path d="M32 0H0V32" fill="none" stroke="#ffffff" stroke-opacity=".025"/>
    </pattern>
  </defs>
  <rect width="1200" height="360" rx="20" fill="#10151b"/>
  <rect width="1200" height="360" rx="20" fill="url(#grid)"/>
  <path d="M48 44h1104" stroke="#29323d"/>
  <circle cx="52" cy="27" r="3" fill="#87dbbc"/>
  <text x="66" y="31" fill="#8c9aab" font-family="ui-monospace, SFMono-Regular, Consolas, monospace" font-size="11" letter-spacing="2">CHORATOOLS / AGENT ADAPTERS</text>
  <text x="48" y="141" fill="#f2f5f7" font-family="Inter, system-ui, -apple-system, sans-serif" font-size="62" font-weight="650" letter-spacing="-3">paseo<tspan fill="#87dbbc">-acp</tspan></text>
  <text x="51" y="188" fill="#a8b5c4" font-family="Inter, system-ui, -apple-system, sans-serif" font-size="21">Your agents. One protocol.</text>
  <text x="51" y="260" fill="#7d8b9c" font-family="ui-monospace, SFMono-Regular, Consolas, monospace" font-size="13">ANTIGRAVITY + ZCODE</text>
  <path d="M48 310h1104" stroke="#29323d"/>
  <text x="51" y="336" fill="#7d8b9c" font-family="ui-monospace, SFMono-Regular, Consolas, monospace" font-size="11" letter-spacing="1">LOCAL RUNTIMES</text>
  <text x="1138" y="336" text-anchor="end" fill="#7d8b9c" font-family="ui-monospace, SFMono-Regular, Consolas, monospace" font-size="11" letter-spacing="1">JSON-RPC / STDIO</text>
  <path d="M860 129h34q16 0 16 16v24q0 16 16 16h27M860 239h34q16 0 16-16v-22q0-16 16-16h27" fill="none" stroke="#526575" stroke-width="2"/>
  <circle cx="953" cy="185" r="3" fill="#87dbbc"/>
  <rect x="647" y="101" width="213" height="56" rx="9" fill="#161e28" stroke="#354452"/>
  <path d="m668 135 8-13 8 13m-12-6h8" fill="none" stroke="#b5bdf0" stroke-width="2" stroke-linecap="round"/>
  <text x="701" y="135" fill="#e4e8f0" font-family="Inter, system-ui, -apple-system, sans-serif" font-size="17">Antigravity</text>
  <rect x="647" y="211" width="213" height="56" rx="9" fill="#161e28" stroke="#354452"/>
  <path d="M669 232h14l-14 14h14" fill="none" stroke="#87dbbc" stroke-width="2" stroke-linecap="round" stroke-linejoin="round"/>
  <text x="701" y="245" fill="#e4e8f0" font-family="Inter, system-ui, -apple-system, sans-serif" font-size="17">ZCode</text>
  <rect x="960" y="157" width="168" height="56" rx="9" fill="#1b2b2a" stroke="#4b7d70"/>
  <text x="1044" y="193" text-anchor="middle" fill="#a2e3cc" font-family="ui-monospace, SFMono-Regular, Consolas, monospace" font-size="24" font-weight="600" letter-spacing="3">ACP</text>
</svg>
